<?xml version="1.0" encoding="UTF-8"?>
<svg width="182px" height="180px" viewBox="0 0 182 180" version="1.1" xmlns="http://www.w3.org/2000/svg" xmlns:xlink="http://www.w3.org/1999/xlink">
  <g id="Page-1" stroke="none" stroke-width="1" fill="none" fill-rule="evenodd">
    <g id="Group" transform="translate(91.400000, 89.200000) scale(-1, 1) rotate(-180.000000) translate(-91.400000, -89.200000) translate(0.900000, -0.800000)" fill-rule="nonzero">
      <path d="M77.1,177.5 C72.9,176 61.1,165.7 61.1,163.5 C61.1,163.1 63,161.6 65.2,160.4 L69.3,158 L72.3,161.6 C77.5,167.9 85.7,171 93,169.3 C98.5,168.1 103.3,164.7 106.5,159.8 C109.1,155.8 109.5,154.2 110.6,144 C111,140.8 111.6,138.2 112.1,138.2 C112.6,138.2 114.7,139.6 116.7,141.4 C120.3,144.6 120.3,144.7 119.8,150.8 C118.7,162.3 112.8,171.2 102.9,176.1 C97.6,178.8 95.8,179.2 89.2,179.1 C85,179.1 79.6,178.3 77.1,177.5 Z" id="Path" fill="#0F7BD4"></path>
      <path d="M36.1,161.5 C29.8,159.2 21,150.2 18.8,143.8 C17.1,138.8 16.5,126.7 17.9,124.5 C18.4,123.7 19.8,123.6 23.2,124.4 L27.8,125.5 L27,129 C25.1,137.4 30,147 38.1,151.2 C47,155.7 55,154.2 64.6,146.2 C67.9,143.5 70.9,141.2 71.2,141.2 C71.6,141.2 72.1,143.6 72.3,146.5 C72.7,151 72.4,152.1 70.2,154.5 C68.8,156 65,158.6 61.7,160.2 C56.6,162.8 54.7,163.2 48.2,163.1 C44,163.1 38.6,162.3 36.1,161.5 Z" id="Path" fill="#0F7BD4"></path>
      <path d="M82.4,160.3 C78.1,157.6 77,155.2 76,146.7 C75.6,142.8 74.9,138.4 74.6,137 C74,134.6 74.3,134.2 78,133.1 C80.7,132.3 82.5,132.2 83.1,132.8 C83.7,133.4 84.7,137.8 85.4,142.6 C86.8,152.6 88.5,154.8 92.2,151.1 C94.2,149.1 94.4,149.1 98.6,150.6 C103.6,152.6 103.7,154.3 99,158.8 C95.1,162.5 87.1,163.3 82.4,160.3 Z" id="Path" fill="#FF0000"></path>
      <path d="M124.4,161.4 C123.6,160.9 123.5,159.5 124.3,156.1 L125.4,151.5 L128.9,152.3 C137.4,154.2 147.1,149.2 151.4,140.7 C155.6,132.2 154,124.1 146.1,114.7 C143.4,111.4 141.1,108.4 141.1,108.1 C141.1,107.7 143.5,107.2 146.4,107 C150.9,106.6 152,106.9 154.4,109.1 C155.9,110.5 158.5,114.3 160.1,117.6 C165.6,128.6 163.8,142.7 155.8,151.8 C149.9,158.5 141.7,162.2 132.6,162.2 C128.8,162.2 125.1,161.8 124.4,161.4 Z" id="Path" fill="#0F7BD4"></path>
      <path d="M102,148.4 C99.4,147.1 95.5,145.8 93.3,145.5 C89,144.9 88.1,143.6 88.1,137.8 C88.1,135 88.1,134.9 92.7,135.6 C99.2,136.5 104.3,137.9 106.5,139.5 C108.2,140.7 108.3,141.5 107.5,145.9 L106.6,150.9 L102,148.4 Z" id="Path" fill="#0F7BD4"></path>
      <path d="M58.2,142 C57.5,139.6 55.6,135.8 53.9,133.5 L51,129.2 L53.7,125.7 C55.1,123.8 56.7,122.2 57.1,122.2 C58.6,122.2 63.4,128.7 65.9,134.1 L68.4,139.5 L64.5,142.8 C62.3,144.6 60.3,146.1 60,146.2 C59.7,146.2 58.8,144.3 58.2,142 Z" id="Path" fill="#0F7BD4"></path>
      <path d="M42.1,142.4 C38.1,140.2 35.1,135.2 35.1,130.4 C35.1,126.4 36.1,124.5 41.5,117.7 C43.7,114.8 46.1,111.7 46.6,110.7 C47.6,109 47.9,109 50.6,110.5 C56.8,113.8 56.7,113.6 53.3,118.9 C51.6,121.6 49,124.9 47.6,126.2 C43.6,130 44.6,133.6 50.1,134.4 C53.3,134.8 56.4,141.8 54,143.3 C51.7,144.8 45.8,144.3 42.1,142.4 Z" id="Path" fill="#0f7bd4"></path>
      <path d="M125.7,142.7 C124.1,141.8 121,139.6 118.9,137.6 C116.8,135.7 113.9,133.6 112.6,133 C110.3,132 110.2,131.8 111.8,128.8 C114.5,123.4 115,123.1 118,124.6 C119.5,125.4 122.9,127.9 125.6,130.1 C128.3,132.4 131.3,134.2 132.3,134.2 C134.4,134.2 136,131.5 135.4,129.1 C135,127.6 135.8,126.8 138.6,125.6 C143.9,123.4 145.1,124.2 145.1,129.9 C145.1,140.8 135,147.5 125.7,142.7 Z" id="Path" fill="#0F7BD4"></path>
      <path d="M99.9,134.9 C97.7,134.3 96.1,133.2 96.1,132.4 C96.1,127.5 106.7,111.8 113.1,107.2 L115.9,105.2 L117.5,109.8 L119,114.3 L114.5,119.9 C112,123 108.8,127.9 107.3,130.8 C105.9,133.8 104.4,136.1 104.1,136.1 C103.8,136 101.9,135.5 99.9,134.9 Z" id="Path" fill="#FF0000"></path>
      <path d="M67,128.9 C64.9,125 64.9,124.8 66.7,123.5 C70.3,120.9 78.7,119 88.9,118.5 C94.5,118.2 99.1,118.2 99.1,118.5 C99.1,118.9 98.1,121.2 96.9,123.7 L94.7,128.2 L88.4,128.2 C84.4,128.2 79.9,129 75.6,130.6 L69,133 L67,128.9 Z" id="Path" fill="#0F7BD4"></path>
      <path d="M125.1,125.2 L121.6,122.2 L125.1,119.1 C127,117.4 131,114.9 134,113.5 L139.5,111.1 L142.8,114.9 C144.6,117 146,119 146.1,119.3 C146.1,119.6 144.2,120.5 141.9,121.1 C139.5,121.8 135.8,123.7 133.4,125.3 C131.1,126.9 129.1,128.2 128.9,128.2 C128.7,128.2 127,126.8 125.1,125.2 Z" id="Path" fill="#0F7BD4"></path>
      <path d="M23,118.9 C12.6,116 5.2,109.4 1.5,99.6 C-1.1,92.9 -0.1,80 3.4,74 C5.8,69.9 14.4,61.2 16,61.2 C16.3,61.2 17.7,63.1 18.9,65.3 L21.3,69.4 L17.7,72.4 C13.8,75.6 10.8,80.7 9.6,85.9 C8.6,90.7 11.4,99.1 15.3,103 C20,107.9 23.6,109.4 32.5,110.3 C36.8,110.7 40.6,111.3 40.9,111.6 C41.2,112 40.1,113.9 38.4,116 C34.9,120.3 30.9,121 23,118.9 Z" id="Path" fill="#0F7BD4"></path>
      <path d="M59.9,113.7 C56.3,110.5 48.5,105.7 43.3,103.6 C43.2,103.5 43.6,101.4 44.3,98.8 C45.7,93.5 45.8,93.5 55.2,98.3 C60.7,101 71.3,109.9 73.1,113.2 C73.8,114.6 73.2,115.1 69.2,116.4 L64.5,117.9 L59.9,113.7 Z" id="Path" fill="#FF0000"></path>
      <path d="M161.3,114.1 L158.9,110 L162.5,107 C170.8,100.2 173,88.8 167.8,80 C163.9,73.3 158.2,70.2 147.9,69.1 C143.4,68.6 139.5,67.9 139.2,67.7 C139,67.4 140.1,65.5 141.8,63.4 C144.7,59.9 145.1,59.7 150.7,59.8 C158.4,59.9 163.1,61.5 168.9,66.1 C180.3,75.2 183.9,93.4 176.6,105.9 C174.4,109.6 165.7,118.2 164.2,118.2 C163.9,118.2 162.5,116.3 161.3,114.1 Z" id="Path" fill="#0F7BD4"></path>
      <path d="M121.2,108.7 C118.4,101.1 116.7,90.3 117.5,84.8 L118.2,80.3 L122.5,82.4 L126.8,84.5 L127.4,91.6 C127.7,95.5 128.9,101.2 130,104.2 C131.2,107.2 132.1,109.8 132.1,109.9 C132.1,110.3 124.9,114.2 124.1,114.2 C123.6,114.2 122.3,111.7 121.2,108.7 Z" id="Path" fill="#0F7BD4"></path>
      <path d="M28.1,106.8 C28.1,106.6 29.2,104.4 30.6,102.1 C32,99.7 33.4,95.6 33.7,93 C34.1,90.3 34.9,88.2 35.5,88.2 C36.1,88.2 38.3,87.9 40.5,87.5 L44.4,86.9 L43.6,92.8 C43.3,96 42.1,100.6 41.1,103 L39.2,107.2 L33.7,107.2 C30.6,107.2 28.1,107 28.1,106.8 Z" id="Path" fill="#0F7BD4"></path>
      <path d="M134.3,101.1 C133.7,98.7 133.5,96.4 133.9,96 C134.4,95.5 138.5,94.7 143.1,94.1 C147.8,93.4 152.2,92.5 152.9,91.9 C154.5,90.6 154.4,88.7 152.6,86.8 C150.7,84.9 150.7,82.9 152.7,79.1 L154.2,76.1 L157.4,77.9 C164.9,82.3 166.1,92.6 159.8,98.9 C156.7,102.1 155.5,102.5 149,103.2 C144.9,103.7 140.2,104.3 138.5,104.7 C135.5,105.4 135.4,105.2 134.3,101.1 Z" id="Path" fill="#FF0000"></path>
      <path d="M21.1,99.4 C17.6,95.9 17.1,94.9 17.1,90.8 C17.1,81.4 21.2,77.6 32.9,76.2 C37.1,75.7 41.6,75 42.7,74.6 C44.5,74.1 45.1,74.6 46,77.3 C48.1,83.3 47.7,83.9 40.8,85.1 C37.3,85.7 33.3,86.2 31.9,86.2 C30.5,86.2 28.7,87 27.7,88 C26.2,89.8 26.2,90.1 28.2,92.6 C30.2,95.1 30.2,95.5 28.8,98.9 C28,101 26.8,102.8 26.2,103 C25.6,103.2 23.3,101.6 21.1,99.4 Z" id="Path" fill="#FF0000"></path>
      <path d="M54.9,96.1 C51.1,94.2 51.1,94.1 51.1,87.9 C51,82.6 49.6,76.6 46.7,70.2 C46.2,69 47.3,68 50.6,66.4 L55.2,64.2 L56.7,67.7 C59.5,74.5 61.1,82.7 61.1,90.4 C61.1,99.1 60.9,99.3 54.9,96.1 Z" id="Path" fill="#0F7BD4"></path>
      <path d="M136.3,85 C136.6,81.5 137.7,77 138.7,74.8 C140.6,71 140.6,71 145.5,71.6 C148.2,71.9 150.6,72.3 150.8,72.5 C151,72.8 150.3,74.5 149.2,76.3 C148.1,78.2 146.7,82 146.1,84.9 C144.9,90.2 143.8,91.2 138.2,91.2 C135.9,91.2 135.8,91 136.3,85 Z" id="Path" fill="#0F7BD4"></path>
      <path d="M123.4,79.7 C116.7,76.4 105.6,66.6 105.6,64.1 C105.6,63.4 107.5,62.2 109.9,61.4 L114.1,60 L119.2,64.6 C121.9,67.1 126.7,70.3 129.7,71.8 C132.7,73.2 135.1,75 135.1,75.7 C135.1,78.3 132.8,83.2 131.6,83.2 C130.9,83.2 127.3,81.6 123.4,79.7 Z" id="Path" fill="#FF0000"></path>
      <path d="M62.8,69.8 L61.3,65.4 L65.6,60.6 C68,58 71.2,53.2 72.8,50 C74.3,46.8 76,44.2 76.6,44.2 C78.5,44.2 85.1,46.3 85.1,46.9 C85.1,47.2 83.5,50.8 81.6,54.9 C78.2,61.9 67.8,74.2 65.3,74.2 C64.7,74.2 63.6,72.2 62.8,69.8 Z" id="Path" fill="#FF0000"></path>
      <path d="M22.8,68.4 C17.9,61.9 16.1,56.4 16.1,47.7 C16.1,41.4 16.6,39.5 19.4,34.1 C25.2,22.7 37.9,16.1 50.5,17.6 C53.6,18 56.1,18.6 56.1,18.8 C56.1,19.1 55.6,21.3 55,23.7 L53.9,28.1 L49,27.5 C39.1,26.3 29.4,33 26.5,42.9 C24.1,51.1 25.7,56.1 33.8,66 C38.9,72.2 38.5,73.2 31.1,73.2 C26.8,73.2 26.3,72.9 22.8,68.4 Z" id="Path" fill="#0F7BD4"></path>
      <path d="M130.5,68 C124.6,64.8 124,64.2 125.2,61.9 C125.8,60.7 128.3,57.2 130.7,54 C133.1,50.9 135.1,47.7 135.1,46.8 C135.1,44.9 132.4,43.3 130,43.9 C128.5,44.3 127.7,43.5 126.5,40.7 C124.3,35.4 125.1,34.2 130.8,34.2 C143.6,34.2 149.5,47.3 141.2,57 C139.4,59 136.8,62.6 135.3,64.8 C132.9,68.4 132.2,68.8 130.5,68 Z" id="Path" fill="#0F7BD4"></path>
      <path d="M35.8,62.7 C32.5,58.7 32.8,57.7 37.5,56.8 C39.3,56.4 42.7,54.8 45,53.2 C47.2,51.5 49.4,50.2 49.8,50.2 C51.2,50.2 57.1,54.7 57.1,55.8 C57.1,58.1 43.4,66.3 39.9,66.1 C39.2,66.1 37.3,64.5 35.8,62.7 Z" id="Path" fill="#0F7BD4"></path>
      <path d="M82.8,61.6 C81.8,61.3 81.1,60.7 81.3,60.4 C81.5,60 82.2,58.1 83,56.1 C84.4,52.5 84.4,52.5 91.5,51.9 C95.4,51.6 100.6,50.6 103.1,49.7 C105.6,48.8 108.3,47.9 109.1,47.6 C111.2,46.9 115.7,55.2 113.9,56.4 C108.8,59.7 88.1,63.1 82.8,61.6 Z" id="Path" fill="#0F7BD4"></path>
      <path d="M120.1,53.5 C116.8,49.8 113.2,42.9 113.1,40.4 C113.1,39 118.9,33.7 120.4,33.7 C120.9,33.7 122,35.7 122.8,38.2 C123.6,40.7 125.4,44.1 126.7,45.9 C128,47.6 129.1,49.3 129.1,49.6 C129.1,50.6 124.6,57.2 124,57.2 C123.6,57.2 121.9,55.5 120.1,53.5 Z" id="Path" fill="#0F7BD4"></path>
      <path d="M154.9,55 L151.2,54 L151.8,49.3 C153,39.3 146.3,29.5 136.4,26.6 C128.2,24.2 123.3,25.8 113.3,33.9 C107.1,39 106.1,38.6 106.1,31.2 C106.1,26.9 106.4,26.4 111,22.9 C118,17.5 123.7,15.9 133,16.4 C139,16.8 141.8,17.5 146,19.8 C156.5,25.4 163.2,38.6 161.7,50.6 C160.9,56.6 160.9,56.6 154.9,55 Z" id="Path" fill="#0F7BD4"></path>
      <path d="M59.6,51.8 C56.8,50 53.7,47.5 52.7,46.3 C49.5,42.7 45.1,44.2 45.1,48.9 C45.1,51.1 40.9,54.2 37.8,54.2 C34.6,54.2 34.1,46.5 36.9,41.3 C40.7,34.3 50.9,32.2 57,37.1 C61.7,40.9 67.6,45.3 69,46.1 C70.1,46.8 70,47.7 68.1,51.1 C66.8,53.3 65.5,55.2 65.2,55.2 C64.8,55.2 62.3,53.7 59.6,51.8 Z" id="Path" fill="#0F7BD4"></path>
      <path d="M95.1,43.7 C94.6,42.3 93.9,38.2 93.5,34.5 C93.1,30.7 92.4,27.1 91.8,26.5 C90.4,24.7 87.4,24.9 86.3,26.8 C85.2,28.8 79,28 77,25.6 C74,22 83.6,14.7 90.4,15.6 C98.5,16.5 102,21 103.2,32 C103.7,36.2 104.2,40.6 104.3,41.6 C104.5,43.1 103.6,43.8 100.3,44.8 C96.2,46.1 96,46 95.1,43.7 Z" id="Path" fill="#FF0000"></path>
      <path d="M77.6,41.4 L72.6,39.7 L72.3,34 C72.1,30.8 72.2,28.2 72.4,28.2 C72.7,28.2 75.3,29.3 78.2,30.6 C81.2,32 85.3,33.4 87.4,33.7 C89.4,34.1 91.1,35 91.1,35.7 C91.1,36.4 91.4,38.4 91.7,40.1 L92.4,43.2 L87.5,43.2 C84.8,43.1 80.4,42.3 77.6,41.4 Z" id="Path" fill="#0F7BD4"></path>
      <path d="M62.7,38 L58.8,34.8 L59.4,28.6 C60.5,17 66.5,8.1 76.6,3.1 C82.1,0.4 84,2.84217094e-14 90.6,2.84217094e-14 C100.3,0.1 107,3.1 113.6,10.4 C116.1,13.1 118.1,15.7 118.1,16.1 C118.1,16.4 116.3,17.7 114.1,19 L110.2,21.2 L105.4,16.4 C97.4,8.4 88.1,7.3 78.8,13.2 C73.4,16.6 69.1,24.4 69.1,30.8 C69.1,35.7 68.1,41.2 67.2,41.2 C66.8,41.2 64.8,39.8 62.7,38 Z" id="Path" fill="#0F7BD4"></path>
    </g>
  </g>
</svg>
